<svg width="905" height="699" viewBox="0 0 905 699" fill="none" xmlns="http://www.w3.org/2000/svg">
<path d="M624.63 588.662C607.691 588.662 591.487 586.776 577.19 582.951C569.419 580.921 561.994 577.832 555.144 573.78C549.07 570.32 542.586 567.349 536.326 564.466C530.977 562.011 525.452 559.467 520.168 556.621C506.996 549.505 493.387 546.632 474.523 546.605H473.006C467.583 546.605 463.621 546.605 458.486 548.9C438.529 557.666 417.63 564.321 396.162 568.745C352.879 577.783 314.257 569.092 287.421 544.274C254.417 513.755 242.966 480.727 243.254 459.992C243.319 455.482 243.598 450.767 243.896 445.759C245.31 421.965 246.919 394.994 224.818 381.038C218.92 377.319 212.427 374.384 206.139 371.546C195.711 366.85 184.93 361.984 176.512 353.365C154.922 331.278 152.382 293.215 170.838 268.522L171.47 267.677C182.233 253.275 194.428 236.944 211.757 229.73C212.688 229.329 213.711 228.947 214.688 228.555C217.139 227.647 219.528 226.592 221.841 225.398C229.459 221.244 241.459 211.076 244.166 202.759C246.324 196.15 246.222 188.651 246.129 181.411C245.961 168.157 245.784 154.458 258.873 144.673C266.965 138.633 276.686 134.826 286.09 131.135C299.392 125.913 311.95 120.985 320.703 110.275C324.927 105.098 327.54 98.8183 330.071 92.7518C332.964 85.7957 335.968 78.5994 341.419 72.7997C358.247 54.8847 380.916 42.0222 403.604 37.5034C419.175 34.4079 438.579 39.0512 455.509 44.0058C472.82 49.0672 492.922 48.5246 518.763 42.2802L519.042 43.3387L518.763 42.2802C528.856 39.8429 538.884 36.7918 548.307 33.8831C579.478 24.2317 617.886 24.0983 651.048 33.6251C688.257 44.2549 715.958 65.648 729.186 93.9526C730.276 96.4705 731.144 99.071 731.781 101.727C732.453 104.662 733.47 107.515 734.814 110.231C744.832 128.76 764.748 139.977 780.98 147.671C809.519 161.201 828.086 175.629 832.523 205.757C834.331 216.87 834.721 228.151 833.685 239.354C832.616 251.007 826.625 262.268 821.788 269.669C820.43 271.751 818.997 273.761 817.546 275.709C814.943 279.089 812.619 282.658 810.598 286.383C807.221 293.001 802.616 299.78 797.733 306.967C787.073 322.649 776.04 338.874 776.412 355.491C776.729 369.251 783.231 382.078 789.519 394.496C792.942 401.23 796.468 408.204 798.951 415.222C800.298 418.661 801.97 421.975 803.947 425.123C804.495 426.074 805.054 427.035 805.602 428.005C812.058 439.568 811.444 455.108 809.993 468.834C808.495 482.906 803.556 496.409 796.04 506.799C792.914 511.148 789.249 515.302 785.696 519.323C782.905 522.436 780.115 525.657 777.575 528.912L776.673 530.086C772.394 535.593 768.301 540.761 762.329 545.066C753.622 551.248 745.083 557.181 736.283 561.851C733.702 563.163 731.054 564.351 728.349 565.409C726.246 566.299 724.07 567.188 722.005 568.202C711.344 573.433 700.731 576.608 690.787 579.41C669.304 585.473 647.029 588.588 624.63 588.662V588.662ZM475.053 544.425C494.029 544.425 507.889 547.512 521.294 554.726C526.512 557.537 532.01 560.063 537.321 562.501C543.628 565.4 550.149 568.407 556.316 571.912C562.994 575.866 570.235 578.877 577.813 580.852C609.98 589.462 651.988 588.154 690.182 577.373C700.024 574.589 710.517 571.449 721 566.308C723.13 565.258 725.344 564.342 727.511 563.461C730.088 562.385 732.758 561.282 735.241 559.966C743.892 555.367 752.367 549.469 761.008 543.331C766.757 539.248 770.701 534.178 774.887 528.805L775.817 527.631C778.403 524.322 781.268 521.076 784.031 517.935C787.547 513.959 791.175 509.841 794.263 505.58C801.537 495.466 806.356 482.346 807.798 468.629C809.212 455.233 809.835 440.058 803.668 429.054C803.128 428.085 802.579 427.142 802.03 426.199C799.992 422.919 798.271 419.468 796.886 415.889C794.449 409.004 790.952 402.093 787.584 395.43C781.184 382.817 774.561 369.767 774.254 355.526C773.864 338.243 785.082 321.724 795.938 305.766C800.775 298.65 805.351 291.916 808.663 285.423C810.727 281.591 813.093 277.916 815.742 274.428C817.146 272.507 818.588 270.514 819.928 268.477C824.579 261.281 830.448 250.349 831.481 239.123C832.504 228.083 832.12 216.966 830.337 206.015C826.039 176.838 807.909 162.793 780.04 149.575C763.492 141.729 743.176 130.281 732.86 111.183C731.452 108.341 730.382 105.357 729.669 102.287C729.062 99.7511 728.238 97.2669 727.204 94.8599C714.265 67.1779 687.029 46.1763 650.509 35.7333C617.775 26.3666 579.869 26.4555 549.116 35.9734C539.665 38.9 529.582 41.9599 519.433 44.4061C493.155 50.7484 472.662 51.291 454.932 46.1051C438.282 41.2305 419.231 36.6495 404.162 39.6561C381.939 44.1037 359.716 56.6994 343.205 74.2675C338.024 79.7825 335.103 86.792 332.275 93.5701C329.689 99.7968 327.01 106.21 322.592 111.627C313.429 122.773 299.988 128.021 286.993 133.145C277.737 136.774 268.165 140.528 260.324 146.381C248.119 155.499 248.315 168.05 248.454 181.393C248.547 188.811 248.65 196.515 246.389 203.426C243.496 212.277 230.957 222.996 223.004 227.31C220.599 228.552 218.113 229.646 215.562 230.584C214.632 230.966 213.636 231.349 212.678 231.749C195.935 238.723 183.916 254.788 173.331 268.958L172.698 269.803C154.838 293.695 157.303 330.522 178.186 351.897C186.307 360.205 196.893 364.982 207.125 369.598C213.478 372.463 220.055 375.434 226.083 379.232C249.273 393.882 247.626 421.52 246.175 445.946C245.878 450.919 245.598 455.615 245.543 460.072C245.254 480.353 256.528 512.723 289.011 542.798C315.29 567.091 353.196 575.586 395.688 566.708C416.98 562.315 437.707 555.711 457.5 547.014C463.081 544.514 467.481 544.523 472.988 544.514H475.025L475.053 544.425Z" stroke="url(#paint0_linear_19_8)" stroke-width="2" stroke-miterlimit="10"/>
<path d="M671.387 599.43C665.329 599.43 659.308 599.287 653.314 599.154L644.896 598.967C627.241 598.638 608.285 597.917 589.338 594.873C570.391 591.83 550.497 586.811 526.858 579.131C524.21 578.241 521.534 577.351 518.839 576.461C495.692 568.719 471.737 560.719 447.875 568.256C445.71 568.942 443.573 569.849 441.51 570.721C439.124 571.787 436.672 572.714 434.169 573.498C431.986 574.13 429.746 574.655 427.581 575.162C424.53 575.821 421.518 576.638 418.559 577.609C411.125 580.226 403.524 582.379 396.192 584.462C392.615 585.476 389.019 586.499 385.414 587.576C375.799 590.531 365.776 592.09 355.679 592.204C353.709 592.204 351.73 592.204 349.741 592.204C337.03 592.266 323.881 592.311 311.774 587.665L311.067 587.389C306.338 585.61 301.45 583.705 297.278 580.706C296.247 579.959 295.252 579.202 294.277 578.455C291.774 576.422 289.066 574.633 286.193 573.115C276.543 568.31 267.849 561.918 260.509 554.231C237.056 529.572 234.491 506.061 231.574 478.83C230.431 468.249 229.241 457.303 226.742 445.503C221.965 422.934 213.733 406.516 200.724 393.817C198.333 391.647 195.681 389.756 192.825 388.184C191.181 387.196 189.48 386.163 187.854 385.007C185.736 383.494 183.719 381.883 181.768 380.326C178.859 377.91 175.8 375.666 172.606 373.607C170.701 372.432 168.75 371.284 166.798 370.136C158.565 365.304 150.072 360.303 144.153 352.561C138.024 344.3 133.393 335.109 130.457 325.374C124.017 304.381 129.258 278.405 144.144 257.599C158.287 237.825 179.454 229.7 199.962 221.842C211.54 217.392 214.903 209.65 211.586 195.091C209.988 188.061 209.319 182.748 210.657 176.403C216.92 146.066 238.208 139.668 258.799 133.483C274.326 128.82 290.393 123.997 301.06 109.18C306.998 100.93 310.51 91.524 313.911 82.4202C317.962 71.5811 322.144 60.3683 330.469 50.7929C343.478 35.8246 364.506 22.8409 388.155 15.1432C411.069 7.69465 440.302 18.071 463.783 26.4094C467.008 27.5574 470.111 28.6609 473.075 29.6665C493.221 36.5366 510.476 29.266 528.735 21.5683C533.381 19.6105 538.204 17.5815 543.045 15.8106C557.071 10.7204 571.77 7.53039 586.718 6.33309C601.663 5.03682 616.727 5.87962 631.413 8.83374C656.288 13.9596 691.746 27.5218 710.814 45.1687C719.26 52.9999 724.529 62.9668 729.621 72.6312C735.196 83.3101 741.06 94.3272 751.169 102.212C763.639 111.938 778.711 117.572 793.29 123.027C814.662 131.036 836.694 139.25 850.716 160.456C854.507 166.205 855.798 172.417 856.57 179.963C857.211 186.23 857.521 192.523 857.499 198.82V198.82C857.285 232.912 845.494 257.127 826.538 285.141L825.608 286.565C807.637 313.12 789.053 340.582 794.944 372.993C796.608 382.221 800.315 391.094 803.307 397.795C806.495 404.834 811.67 412.256 817.069 420.113C827.179 434.717 837.642 449.819 837.289 464.858C836.554 496.396 812.07 531.183 791.339 551.393C780.336 562.062 767.907 571.291 754.375 578.837C739.703 587.06 724.854 592.827 710.238 595.968C697.507 598.771 684.396 599.43 671.387 599.43ZM468.197 563.059C485.61 563.059 502.81 568.808 519.592 574.414C522.277 575.304 524.944 576.194 527.592 577.084C551.11 584.729 570.856 589.703 589.719 592.738C608.582 595.772 627.371 596.484 644.942 596.805L653.37 596.991C672.038 597.428 691.347 597.881 709.773 593.921C725.089 590.456 739.756 584.753 753.26 577.013C766.62 569.563 778.89 560.452 789.75 549.915C810.193 529.99 834.352 495.756 835.049 464.867C835.384 450.504 825.125 435.696 815.211 421.368C809.719 413.43 804.525 405.928 801.272 398.72C798.187 391.903 794.415 382.871 792.714 373.42C786.702 340.164 805.528 312.346 823.731 285.435L824.661 284.011C843.393 256.308 855.046 232.396 855.26 198.847C855.282 192.624 854.971 186.404 854.33 180.212C853.596 172.968 852.379 167.042 848.82 161.658C835.198 141.056 814.439 133.296 792.491 125.091C777.745 119.583 762.506 113.878 749.748 103.938C739.257 95.7599 733.329 84.5204 727.595 73.6813C722.587 64.1949 717.374 54.3792 709.234 46.8061C690.492 29.4529 655.516 16.0954 630.948 11.0318C616.479 8.12345 601.637 7.29565 586.913 8.57566C572.176 9.75608 557.682 12.9011 543.853 17.9197C539.068 19.6995 534.282 21.684 529.655 23.6329C511.786 31.1704 493.313 38.9571 472.313 31.7934C469.34 30.7789 466.227 29.6665 463.021 28.5274C439.875 20.3046 411.069 10.0707 388.917 17.279C365.686 24.8432 344.993 37.5955 332.235 52.2523C324.16 61.5341 320.044 72.56 316.057 83.23C312.61 92.4584 309.051 102.007 302.937 110.488C291.786 125.919 275.386 130.858 259.487 135.637C238.617 141.866 218.899 147.828 212.896 176.893C211.661 182.846 212.311 187.919 213.826 194.691C216.334 205.717 216.753 217.829 200.817 223.924C180.634 231.658 159.773 239.667 145.993 258.898C131.488 279.179 126.359 304.443 132.613 324.822C135.477 334.317 139.991 343.283 145.965 351.341C151.606 358.737 159.904 363.613 167.96 368.339C169.93 369.496 171.89 370.652 173.814 371.836C177.087 373.942 180.221 376.24 183.199 378.715C185.122 380.254 187.12 381.847 189.183 383.325C190.735 384.428 192.398 385.434 194.015 386.404C197.02 388.067 199.808 390.065 202.322 392.357C215.591 405.368 224.038 422.134 228.907 445.129C231.434 457.036 232.624 468.035 233.766 478.669C236.666 505.518 239.174 528.7 262.126 552.825C269.295 560.329 277.787 566.564 287.215 571.246C290.216 572.838 293.045 574.71 295.661 576.835C296.59 577.565 297.603 578.312 298.616 579.042C302.547 581.872 307.295 583.687 311.885 585.449L312.591 585.725C324.29 590.175 337.197 590.175 349.704 590.104H355.66C365.525 590.032 375.319 588.504 384.698 585.574C388.322 584.497 391.918 583.474 395.505 582.459C402.808 580.386 410.372 578.241 417.741 575.643C420.786 574.637 423.889 573.796 427.033 573.124C429.17 572.626 431.372 572.11 433.537 571.496C435.95 570.738 438.314 569.846 440.618 568.826C442.762 567.876 444.955 567.029 447.188 566.29C453.964 564.141 461.058 563.05 468.197 563.059V563.059Z" stroke="url(#paint1_linear_19_8)" stroke-width="2" stroke-miterlimit="10"/>
<path d="M680.186 620.966C664.695 620.966 649.195 618.965 634.15 617.026L626.576 616.057C616.354 614.785 607.889 613.477 599.349 609.395C590.651 605.232 582.287 603.338 573.032 601.461C522.34 591.144 472.893 582.934 425.277 595.564C418.317 597.414 411.338 599.771 404.657 602.048C394.277 605.606 383.544 609.217 372.439 611.094C360.479 613.113 348.157 613.273 336.253 613.433C328.735 613.539 320.967 613.637 313.402 614.207C264.941 617.853 230.01 574.378 216.832 529.657C214.472 521.652 214.695 513.301 214.909 505.225L214.965 503.037C215.281 489.944 214.965 471.328 211.536 457.017C209.677 449.288 206.23 441.897 203.079 435.751C195.692 421.253 180.619 413.711 166.048 406.4C155.575 401.152 144.74 395.727 136.692 387.722C134.834 385.943 133.068 384.164 131.293 382.385C110.691 362.222 94.4288 346.292 98.3318 314.406C100.85 293.825 107.485 265.612 124.76 248.072C136.162 236.51 149.061 225.339 166.085 222.03C168.03 221.7 170.001 221.528 171.977 221.514C174.041 221.512 176.1 221.304 178.119 220.891C193.517 217.111 190.655 205.469 187.626 193.132C186.204 187.387 184.838 181.952 185.367 177.229C186.966 162.109 191.947 152.512 202.02 144.996C211.248 138.121 224.034 132.215 240.027 127.466C248.586 124.922 256.568 122.547 264.03 117.904C271.429 113.401 278.204 108.022 284.195 101.894C293.572 91.9151 296.806 79.6587 300.225 66.7798C301.793 60.3611 303.77 54.0403 306.145 47.8527C312.566 32.0297 324.47 18.5815 341.522 7.8728C375.06 -13.1711 406.683 -2.40013 440.164 9.07353L445.21 10.799C447.403 11.5372 449.569 12.3022 451.715 13.0493C468.554 18.9462 484.453 24.514 502.444 19.4354C510.808 17.0517 518.613 12.7291 526.122 8.53987C533.63 4.35065 541.566 -0.0698231 550.209 -2.54244C572.939 -9.03528 597.053 -9.75572 620.378 -10.4495L627.152 -10.654C673.774 -12.1394 703.408 0.810719 726.203 32.679C735.41 45.7617 743.698 59.4149 751.015 73.5483C755.661 82.4427 764.415 87.4413 772.388 91.1413C782.146 95.6952 791.903 99.1995 801.307 102.588C818.554 108.814 834.854 114.658 850.698 126.292C852.742 127.795 854.824 129.244 856.915 130.694C861.214 133.578 865.343 136.687 869.283 140.007C884.152 152.868 889.644 174.232 885.313 201.786C880.593 231.965 866.496 257.314 862.314 264.429C860.084 268.174 857.547 272.016 854.081 276.881C850.921 281.328 847.473 285.775 843.859 290.587C831.713 306.472 817.941 324.483 813.778 342.752C810.637 356.556 815.432 370.485 820.013 379.753C825.812 391.484 834.417 403.589 844.899 414.752C848.44 418.514 852.408 423.095 855.121 428.502C865.204 448.897 864.312 479.556 858.364 498.047C850.178 523.467 839.575 542.412 825.004 557.639L822.337 560.432C812.384 570.918 802.088 581.778 788.948 587.924C785.454 589.56 781.811 590.93 778.298 592.255C774.405 593.723 770.39 595.235 766.617 597.094C750.32 605.136 733.243 611.639 715.628 616.51C705.834 619.2 695.717 620.665 685.529 620.868C683.708 620.94 681.942 620.966 680.186 620.966ZM477.679 586.972C509.042 586.972 541.018 592.718 573.506 599.326C582.566 601.167 591.44 603.178 600.371 607.447C608.595 611.378 616.884 612.65 626.874 613.904C629.401 614.215 631.929 614.545 634.456 614.874C651.118 617.017 668.338 619.258 685.39 618.707C695.381 618.51 705.305 617.078 714.913 614.447C732.39 609.606 749.336 603.154 765.512 595.182C769.384 593.346 773.351 591.699 777.397 590.245C780.872 588.938 784.469 587.577 787.879 585.985C800.629 580.008 810.776 569.317 820.59 558.982L823.257 556.18C837.595 541.175 848.04 522.488 856.125 497.389C861.951 479.289 862.834 449.359 852.993 429.418C850.447 424.26 846.609 419.839 843.18 416.184C832.559 404.87 823.823 392.587 817.923 380.66C811.139 366.945 808.927 353.666 811.529 342.272C815.794 323.594 829.715 305.343 842 289.289C845.633 284.53 849.062 280.047 852.222 275.636C855.66 270.815 858.169 267.017 860.362 263.317C868.921 248.944 879.394 225.143 883.111 201.457C886.047 182.779 885.778 157.217 867.806 141.616C863.906 138.353 859.823 135.295 855.577 132.455C853.476 130.997 851.367 129.538 849.304 128.008C833.739 116.579 817.597 110.771 800.508 104.616C791.039 101.21 781.244 97.6875 771.394 93.0536C763.114 89.1934 753.979 83.9636 749.017 74.4823C741.733 60.4507 733.481 46.8984 724.317 33.9153C702.014 2.73189 672.956 -9.9425 627.217 -8.47494L620.443 -8.27037C597.267 -7.57661 573.301 -6.86507 550.85 -0.452273C542.486 1.9403 534.736 6.25403 527.256 10.4255C519.636 14.6769 511.755 19.0707 503.095 21.5167C484.379 26.8532 468.135 21.1164 450.935 15.095C448.788 14.3478 446.623 13.5918 444.43 12.8536L439.374 11.1281C406.506 -0.132081 375.357 -10.7608 342.805 9.69613C326.152 20.1469 314.545 33.2571 308.291 48.6354C305.958 54.7637 304.015 61.022 302.474 67.3757C299.129 79.9878 295.672 93.0358 285.924 103.407C279.803 109.686 272.878 115.199 265.313 119.817C257.581 124.628 249.459 127.039 240.854 129.6C225.01 134.305 212.465 140.087 203.46 146.802C193.917 153.917 189.196 163.105 187.663 177.541C187.198 181.899 188.49 187.155 189.865 192.723C192.867 204.935 196.277 218.783 178.714 223.088C176.534 223.545 174.31 223.775 172.079 223.773C170.231 223.789 168.388 223.95 166.568 224.253C150.167 227.447 137.584 238.351 126.442 249.656C109.595 266.759 103.099 294.492 100.618 314.753C96.8357 345.607 112.773 361.199 132.947 380.944C134.722 382.723 136.534 384.502 138.356 386.281C146.152 394.01 156.811 399.347 167.163 404.505C182.031 411.968 197.476 419.626 205.189 434.808C208.404 441.106 211.935 448.603 213.822 456.546C217.279 471.079 217.622 489.891 217.306 503.108L217.251 505.296C217.037 513.212 216.823 521.394 219.109 529.088C232.035 572.946 266.205 615.585 313.3 612.063C320.939 611.485 328.754 611.378 336.3 611.28C348.12 611.12 360.349 610.951 372.132 608.968C383.042 607.127 393.682 603.507 403.979 600.011C410.734 597.725 417.713 595.351 424.748 593.483C442.001 589.022 459.808 586.832 477.679 586.972Z" stroke="url(#paint2_linear_19_8)" stroke-width="2" stroke-miterlimit="10"/>
<path d="M682.74 648.963C681.494 648.963 680.239 648.963 678.955 648.839C675.412 648.581 671.832 648.341 668.242 648.11C645.923 646.642 622.944 645.131 601.712 638.391C593.343 635.723 585.131 632.397 577.18 629.169C563.593 623.665 549.551 617.965 534.634 615.609C515.933 612.666 496.682 613.76 478.055 614.827C472.782 615.129 467.519 615.431 462.246 615.645C440.234 616.534 419.979 622.376 400.394 628.022C385.236 632.388 369.556 636.914 352.966 639.2C342.587 640.64 331.744 640.516 321.254 640.4C318.966 640.4 316.697 640.347 314.437 640.338C287.999 640.231 253.757 632.993 236.925 613.013C235.326 611.11 233.68 609.207 232.043 607.304C225.663 599.932 219.023 592.303 214.187 583.784C206.041 569.557 201.001 556.335 199.206 544.401C197.132 530.645 197.643 516.231 198.136 502.289C198.332 496.802 198.536 491.129 198.564 485.652C198.685 466.383 194.714 450.652 186.781 438.906C179.611 428.298 171.502 425.266 162.11 421.744C156.905 419.927 151.876 417.678 147.081 415.022C144.314 413.339 141.672 411.473 139.177 409.438C137.317 407.962 135.317 406.432 133.309 405.125C130.29 403.278 127.121 401.666 123.832 400.306C121.095 399.14 118.425 397.834 115.835 396.393C75.3068 372.936 63.1614 315.04 75.158 274.857C77.6224 266.596 81.9002 259.642 86.4291 252.271L86.8197 251.63C98.7883 232.13 118.876 227.622 140.144 222.811L144.859 221.744C165.681 216.951 165.848 198.678 166.006 181.001C166.006 177.346 166.08 173.887 166.285 170.544C167.912 144.757 180.411 129.125 204.497 122.713C207.678 121.869 210.84 120.988 213.992 120.108C221.543 118.001 229.355 115.831 237.241 114.186C252.39 111.038 262.564 107.49 272.905 97.7356C286.901 84.5398 290.286 73.0335 292.221 53.7377C292.695 49.0783 292.797 44.0988 292.909 38.8347C293.262 21.8064 293.662 2.5106 307.788 -9.18246C341.63 -37.2903 389.132 -29.5008 426.731 -19.5773L427.819 -19.2927C469.574 -8.27546 497.147 -1.00176 536.689 -22.5205C552.499 -31.1281 570.466 -34.6582 589.037 -37.7882C640.371 -46.4669 688.06 -36.899 719.846 -11.6456C732.865 -1.2952 740.937 12.8787 748.758 26.5903C757.277 41.5201 766.074 56.9567 781.214 67.0847C792.494 74.6252 808.927 81.4632 826.317 85.847C830.311 86.7337 834.391 87.2106 838.49 87.2697C840.908 87.3853 843.41 87.5009 845.995 87.8032C866.203 90.1952 886.105 100.714 899.236 115.938C912.953 131.837 921.797 153.284 922.894 173.363L923.164 177.809C923.619 185.376 923.88 192.738 922.122 199.425C916.542 220.553 905.197 250.688 882.524 274.287C878.693 278.28 874.685 282.29 870.797 286.132C856.773 300.083 842.266 314.515 832.976 332.139C830.576 336.683 827.201 343.539 825.536 350.564C824.011 357.144 825.536 361.848 827.805 367.787C828.53 369.646 829.107 371.513 829.665 373.309C830.902 377.257 832.074 380.992 834.51 384.46C836.584 387.421 839.16 389.573 841.95 391.849C844.353 393.721 846.567 395.805 848.562 398.074C852.803 403.16 858.522 407.393 864.567 411.874C875.326 419.824 886.449 428.058 888.671 441.52C896.26 487.394 871.393 527.427 846.07 560.532C844.73 562.31 843.438 564.088 842.145 565.796C837.449 572.198 832.585 578.814 826.029 584.096C815.781 592.374 804.565 599.274 793.666 605.952C783.604 612.177 773.207 618.526 763.703 625.951C762.252 627.08 760.829 628.262 759.406 629.445C755.389 632.771 751.232 636.221 746.387 638.657C741.542 641.094 736.083 642.383 730.829 643.601C728.904 644.046 726.988 644.49 725.109 644.988C718.302 646.767 712.527 647.051 705.85 647.336L702.334 647.496C699.545 647.638 696.829 647.923 694.179 648.19C690.383 648.645 686.565 648.903 682.74 648.963V648.963ZM507.442 611.536C516.67 611.46 525.889 612.105 535.006 613.466C550.183 615.858 564.365 621.611 578.073 627.169C585.987 630.379 594.161 633.695 602.429 636.319C623.39 642.979 646.267 644.482 668.4 645.931L679.132 646.66C684.08 646.891 689.039 646.68 693.946 646.029C696.625 645.753 699.405 645.469 702.223 645.326L705.757 645.166C712.266 644.882 717.949 644.642 724.505 642.89C726.365 642.383 728.355 641.938 730.308 641.485C735.413 640.302 740.705 639.075 745.327 636.737C749.949 634.398 753.966 631.046 757.89 627.845C759.332 626.644 760.773 625.453 762.233 624.288C771.831 616.792 782.283 610.363 792.401 604.147C803.217 597.505 814.395 590.631 824.597 582.415C830.92 577.311 835.487 571.104 840.313 564.524C841.615 562.746 842.917 560.967 844.256 559.233C869.309 526.484 893.907 486.932 886.449 441.858C884.365 429.249 873.606 421.291 863.2 413.59C857.304 409.233 851.212 404.698 846.795 399.425C844.893 397.269 842.778 395.291 840.481 393.521C837.496 391.272 834.852 388.638 832.622 385.696C829.991 381.952 828.717 377.88 827.48 373.95C826.931 372.171 826.354 370.393 825.666 368.561C823.313 362.479 821.649 357.25 823.304 350.11C824.959 342.97 828.447 335.82 830.902 331.17C840.35 313.261 854.979 298.714 869.123 284.638C872.992 280.788 877 276.804 880.813 272.838C903.132 249.568 914.385 219.788 919.871 198.909C921.555 192.516 921.294 185.349 920.848 177.951L920.764 176.475L920.588 173.523C919.509 153.916 910.851 132.922 897.441 117.369C884.858 102.777 865.022 92.2937 845.679 90.0084C843.177 89.715 840.713 89.5994 838.342 89.4838C834.085 89.4202 829.848 88.9194 825.703 87.9899C808.034 83.5439 791.36 76.5992 779.866 68.9076C764.298 58.4861 755.361 42.8272 746.722 27.6751C739.003 14.1414 731.024 0.154209 718.358 -9.92049C687.083 -34.8183 640.073 -44.1549 589.39 -35.6008C571.033 -32.4974 553.271 -29.0206 537.787 -20.591C497.454 1.33685 469.509 -6.06134 427.214 -17.1942L426.126 -17.4787C355.588 -36.0809 326.62 -21.9781 309.286 -7.60856C295.875 3.47984 295.522 21.504 295.159 38.8435C295.057 44.1788 294.945 49.1672 294.471 53.9156C292.481 73.7449 288.984 85.5891 274.486 99.2651C263.745 109.393 253.274 113.066 237.706 116.293C229.867 117.921 222.101 120.09 214.587 122.18C211.425 123.069 208.254 123.958 205.065 124.794C182.029 130.93 170.079 145.931 168.517 170.659C168.303 173.949 168.275 177.373 168.238 181.001C168.08 198.652 167.894 218.659 145.342 223.843L140.618 224.91C119.843 229.578 100.22 234.024 88.7354 252.698L88.3448 253.338C83.8903 260.585 79.6869 267.423 77.2969 275.417C62.185 326.048 86.1222 376.644 116.969 394.499C119.488 395.896 122.083 397.164 124.744 398.296C128.154 399.712 131.435 401.395 134.555 403.329C136.638 404.689 138.647 406.246 140.581 407.775C142.991 409.745 145.542 411.552 148.216 413.181C152.935 415.777 157.883 417.973 163.002 419.744C172.358 423.247 181.192 426.555 188.762 437.75C196.937 449.834 201.019 465.965 200.908 485.669C200.908 491.182 200.675 496.873 200.48 502.369C199.987 516.214 199.475 530.539 201.521 544.099C203.279 555.774 208.236 568.783 216.252 582.744C221.032 591.076 227.551 598.625 233.856 605.926C235.512 607.837 237.158 609.74 238.766 611.652C255.097 631.037 288.603 638.062 314.512 638.168C316.772 638.168 319.05 638.168 321.347 638.23C331.753 638.346 342.504 638.471 352.705 637.057C369.11 634.78 384.706 630.29 399.78 625.951C419.505 620.269 439.899 614.391 462.19 613.502C467.435 613.288 472.689 612.986 477.944 612.684C487.671 612.097 497.557 611.536 507.47 611.536H507.442Z" stroke="url(#paint3_linear_19_8)" stroke-width="2" stroke-miterlimit="10"/>
<path d="M700.143 669.782C691.326 669.782 682.118 668.101 673.199 666.464C671.721 666.197 670.263 665.921 668.822 665.672C645.12 661.465 619.867 656.278 595.672 646.929C583.919 642.393 573.252 638.55 561.703 637.518C553.053 636.744 544.468 635.401 536.171 634.111C519.187 631.442 503.141 628.951 485.914 630.704L479.058 631.38C473.78 631.887 468.326 632.412 463.012 633.097C446.966 635.143 430.687 640.16 414.957 645.008C407.942 647.169 400.686 649.402 393.587 651.306C389.746 652.43 385.974 653.76 382.289 655.291C377.523 657.177 372.589 659.125 367.423 660.139L366.968 660.219C357.816 661.998 348.385 663.831 338.75 662.381C332.176 661.545 325.554 661.105 318.923 661.064C307.234 660.762 295.146 660.442 284.415 655.905C278.626 653.459 272.745 651.297 267.059 649.206C246.618 641.699 227.311 634.609 213.569 615.403C196.742 591.919 188.622 568.889 187.237 540.681C187.08 537.576 186.829 534.454 186.578 531.394C186.188 526.519 185.779 521.484 185.779 516.476C185.779 513.523 185.862 510.56 185.955 507.58C186.254 501.77 186.195 495.949 185.779 490.145C184.803 479.711 181.198 473.244 177.026 465.709C174.673 461.635 172.563 457.435 170.708 453.131C168.608 448.096 167.503 446.272 162.411 444.057C138.468 433.605 119.337 424.256 102.213 414.622C88.2019 406.803 75.3799 392.33 68.0584 381.45C65.6952 377.785 63.5546 373.992 61.6474 370.091C60.263 367.422 58.86 364.602 57.2712 361.951C56.3421 360.359 55.413 358.802 54.4839 357.263C49.3829 348.902 44.5608 341.002 42.7769 330.746C37.741 301.764 47.8592 267.214 68.5694 242.724C73.6796 236.684 80.4437 233.58 86.929 230.92C92.6302 228.733 98.4783 226.914 104.434 225.476C115.397 222.576 126.733 219.578 135.225 211.928C145.167 202.97 145.287 191.166 145.445 178.676C145.445 175.581 145.501 172.387 145.696 169.274C146.625 154.73 147.731 136.618 159.261 125.41C169.798 115.02 188.306 113.009 204.594 111.23C210.075 110.643 215.251 110.083 219.822 109.247C221.68 108.9 223.696 108.695 225.62 108.499C229.039 108.144 232.56 107.779 235.561 106.64C265.739 95.2183 267.598 64.0839 269.558 31.0014C270.961 7.42817 272.41 -16.9456 285.177 -33.4647C289.562 -39.1045 297.33 -44.3528 303.1 -47.0215C307.095 -48.8807 311.564 -49.5478 315.884 -50.1883L317.399 -50.4196C341.556 -54.1379 370.526 -52.8481 405.889 -46.47C411.089 -45.4135 416.208 -44.0196 421.21 -42.298C423.329 -41.6219 425.438 -40.9458 427.547 -40.3231C471.402 -27.4246 518.945 -30.2445 554.716 -47.8577C557.002 -48.9785 559.269 -50.2417 561.462 -51.4693C565.298 -53.7261 569.308 -55.7006 573.457 -57.3759C589.066 -63.2559 610.678 -62.651 628.034 -62.1617L632.921 -62.0372C641.85 -61.8148 650.667 -60.6139 659.197 -59.4575C664.39 -58.7547 669.761 -58.0253 675.103 -57.5271L676.506 -57.3937C682.425 -56.8511 688.018 -56.3351 693.844 -54.1557C711.497 -47.573 726.902 -38.0637 739.687 -29.6307C755.194 -19.4008 761.178 -6.25319 768.1 8.9582C769.029 10.9419 769.958 12.9701 770.887 15.025C785.372 46.0704 819.109 57.9371 851.721 69.4213C867.516 74.981 883.869 80.7275 897.508 88.5734C919.659 101.312 935.946 126.717 945.916 164.105C946.306 165.582 946.656 167.065 946.966 168.553C952.736 196.387 945.925 231.987 930.418 255.125C927.093 259.891 923.482 264.468 919.603 268.833C917.373 271.439 915.059 274.126 912.932 276.839C911.148 279.107 909.429 281.464 907.775 283.751C904.669 288.239 901.255 292.524 897.555 296.578C895.003 299.253 892.441 301.921 889.871 304.584C878.898 316.015 867.572 327.837 856.971 339.971C850.857 346.98 846.258 353.047 847.15 361.871C849.008 379.787 863.502 390.568 877.551 401.012C884.956 406.563 892.658 412.291 898.4 419.016C916.527 440.366 917.41 468.992 901.085 506.522C900.054 508.897 899.051 511.281 898.047 513.638C894.916 521.093 891.673 528.805 887.557 536.011C885.908 538.723 883.955 541.256 881.732 543.563C880.663 544.755 879.576 545.956 878.536 547.272C877.532 548.576 876.601 549.93 875.748 551.329C874.543 553.34 873.147 555.24 871.576 557.004C863.539 565.464 856.06 574.644 848.831 583.531C839.317 595.21 829.478 607.282 818.244 617.921C797.804 637.278 770.06 653.307 740.198 663.039C728.148 666.885 715.601 669.118 702.912 669.675C701.974 669.773 701.054 669.782 700.143 669.782ZM497.594 627.973C510.927 627.973 523.897 630.001 536.543 631.976C544.812 633.266 553.351 634.644 561.917 635.365C573.763 636.424 585.052 640.498 596.527 644.928C620.536 654.206 645.668 659.356 669.24 663.546L673.635 664.347C683.363 666.126 693.454 667.958 702.791 667.576C715.264 667.019 727.598 664.822 739.445 661.046C769.019 651.413 796.438 635.578 816.656 616.444C827.805 605.903 837.57 593.885 847.047 582.259C854.304 573.363 861.811 564.129 869.895 555.572C871.374 553.915 872.687 552.128 873.816 550.235C874.71 548.77 875.687 547.354 876.742 545.991C877.82 544.639 878.944 543.394 880.022 542.184C882.152 539.996 884.022 537.589 885.597 535.005C889.639 527.889 892.853 520.265 895.966 512.864C896.969 510.471 897.973 508.079 899.013 505.695C914.985 468.974 914.214 441.068 896.672 420.404C891.097 413.857 883.488 408.19 876.111 402.72C861.681 392.045 846.759 380.935 844.845 362.085C843.86 352.415 848.72 345.984 855.177 338.574C865.788 326.405 877.16 314.556 888.152 303.107L895.827 295.101C899.471 291.12 902.833 286.909 905.889 282.496C907.552 280.201 909.28 277.817 911.092 275.522C913.257 272.774 915.58 270.06 917.828 267.445C921.667 263.139 925.244 258.624 928.541 253.924C943.76 231.222 950.431 196.29 944.773 168.962C944.476 167.512 944.132 166.071 943.751 164.63C933.93 127.829 917.996 102.86 896.365 90.4325C882.912 82.6934 866.633 76.9825 850.968 71.4583C817.891 59.823 783.69 47.7873 768.824 15.9056C767.895 13.8419 766.966 11.8137 766.037 9.82107C759.254 -5.08787 753.401 -17.9686 738.433 -27.8427C725.75 -36.2045 710.447 -45.6338 693.045 -52.1364C687.47 -54.2091 682.072 -54.7072 676.32 -55.2321L674.917 -55.3655C669.529 -55.8726 664.14 -56.602 658.918 -57.3136C650.454 -58.4612 641.701 -59.6532 632.902 -59.8667L628.006 -60.0001C610.845 -60.4805 589.503 -61.0765 574.321 -55.3655C570.283 -53.7233 566.379 -51.7935 562.642 -49.5923C560.421 -48.3558 558.126 -47.0749 555.794 -45.9273C519.465 -28.0473 471.29 -25.1829 426.878 -38.2149C424.75 -38.8376 422.622 -39.5225 420.485 -40.2075C415.581 -41.892 410.565 -43.2619 405.471 -44.3083C370.359 -50.6687 341.686 -51.9496 317.761 -48.2758L316.228 -48C312.075 -47.3773 307.782 -46.7368 304.084 -45.02C298.751 -42.547 291.132 -37.4588 287.007 -32.1214C274.65 -16.1095 273.219 7.90853 271.834 31.1704C269.911 63.4346 267.932 96.8107 236.398 108.748C233.118 109.994 229.429 110.376 225.861 110.741C223.901 110.946 222.033 111.141 220.286 111.471C215.641 112.36 210.41 112.885 204.882 113.481C188.975 115.198 170.931 117.137 160.832 126.958C149.905 137.632 148.809 155.237 147.926 169.416C147.731 172.485 147.703 175.643 147.675 178.712C147.545 191.112 147.424 203.94 136.777 213.529C127.866 221.535 116.261 224.622 105.028 227.593C99.1742 229.001 93.4254 230.784 87.8209 232.93C81.5307 235.448 75.0733 238.437 70.2883 244.068C49.9776 268.086 40.0359 301.96 44.9696 330.354C46.6885 340.228 51.4084 347.959 56.3979 356.152C57.327 357.699 58.2561 359.265 59.2503 360.866C60.8484 363.535 62.2885 366.39 63.6915 369.112C65.557 372.947 67.6542 376.675 69.9724 380.276C77.1545 390.951 89.6978 405.121 103.421 412.825C120.48 422.423 139.536 431.737 163.415 442.18C169.185 444.698 170.662 447.117 172.873 452.428C174.7 456.66 176.779 460.788 179.098 464.793C183.205 472.194 187.08 479.186 188.102 490.056C188.525 495.945 188.587 501.853 188.287 507.749C188.194 510.694 188.102 513.638 188.111 516.574C188.111 521.502 188.51 526.492 188.901 531.323C189.161 534.436 189.412 537.55 189.56 540.681C190.926 568.417 198.926 591.101 215.502 614.238C228.844 632.856 247.826 639.831 267.932 647.214C273.646 649.313 279.555 651.484 285.39 653.948C295.713 658.315 307.569 658.627 319.043 658.929C325.772 658.961 332.491 659.406 339.159 660.264C348.357 661.669 357.203 659.943 366.577 658.12L367.023 658.04C372.004 657.07 376.835 655.167 381.509 653.316C385.274 651.751 389.13 650.394 393.058 649.251C400.063 647.356 407.301 645.123 414.297 642.971C430.093 638.087 446.501 633.043 462.751 630.971C468.094 630.286 473.566 629.761 478.862 629.245L485.71 628.578C489.651 628.169 493.611 627.961 497.575 627.955L497.594 627.973Z" stroke="url(#paint4_linear_19_8)" stroke-width="2" stroke-miterlimit="10"/>
<path d="M681.431 697.779C677.592 697.779 673.818 697.503 669.924 697.227L664.96 696.89C651.575 696.098 636.09 691.636 622.435 687.698L616.105 685.92C610.311 684.162 604.629 682.085 599.086 679.697C596.986 678.808 594.885 677.972 592.775 677.146C545.872 658.833 509.026 653.072 469.569 657.926C459.456 659.17 450.161 661.748 440.336 664.478L439.016 664.842C427.815 667.954 411.205 672.176 396.259 672.95C392.81 673.136 389.38 673.287 385.969 673.438C369.48 674.167 353.91 674.852 337.83 678.523L332.476 679.759C322.502 682.088 313.077 684.275 302.815 685.315C270.71 688.542 244.47 681.893 215.061 663.091C202.894 655.312 190.364 637.604 184.75 624.865C179.349 612.641 175.966 598.48 174.692 582.781C174.032 574.709 174.144 566.441 174.255 558.458C174.255 555.356 174.339 552.236 174.339 549.169V546.253C174.339 523.362 174.339 497.413 160.536 478.086C158.688 475.657 156.649 473.366 154.438 471.232C152.423 469.268 150.533 467.19 148.778 465.009C142.596 457.009 129.258 453.453 117.444 450.288C112.271 449.018 107.189 447.432 102.228 445.541C96.651 443.247 91.139 440.883 85.6178 438.518L76.3227 434.562C66.6465 430.508 59.8426 425.895 54.2655 419.618C51.4026 416.391 48.3724 413.191 45.1656 409.84C34.7459 398.745 23.9171 387.304 18.0984 374.174C16.4625 370.494 14.5291 366.733 12.6515 363.106C8.59888 355.257 4.40681 347.105 2.59427 338.553C1.5904 333.77 1.71124 328.845 1.82278 324.089C1.82278 322.667 1.89714 321.244 1.89714 319.822C1.89714 312.132 2.3526 305.652 4.36033 299.029C13.2278 269.648 26.0271 250.873 47.1641 236.241C54.3306 231.298 61.9804 226.853 69.37 222.515C83.1732 214.514 97.4411 206.167 108.753 194.343C113.401 189.463 116.338 185.294 116.403 179.569C116.403 177.524 116.403 175.47 116.403 173.426C116.403 171.932 116.403 170.439 116.403 168.981C116.403 165.869 116.403 162.758 116.403 159.656C116.403 153.068 116.403 146.472 116.403 139.885C116.254 126.612 120.186 115.785 128.087 107.695C136.239 99.3653 146.733 94.6715 156.771 90.5733C164.812 87.293 173.094 86.1818 181.115 85.0972C185.884 84.4572 190.819 83.7904 195.69 82.6792C198.105 82.1943 200.565 81.9411 203.033 81.9236C204.39 81.8703 205.747 81.8258 207.132 81.6836C211.436 81.2302 218.286 78.1721 221.902 75.603C239.46 63.2196 241.849 44.3822 241.821 25.8737V24.5225C241.821 9.76552 241.756 -5.49817 246.896 -19.6684C248.068 -22.9043 249.406 -26.1757 250.698 -29.3405C251.429 -31.1184 252.151 -32.8964 252.864 -34.6743C253.208 -35.5633 253.524 -36.4523 253.793 -37.2701C255.113 -40.8883 256.359 -44.3019 259.64 -47.4489C263.785 -51.2791 268.322 -54.7011 273.183 -57.6632C277.771 -60.5635 282.692 -62.9497 287.85 -64.775C294.738 -67.3797 301.356 -68.482 308.365 -69.6466C310.224 -69.9577 312.166 -70.2778 314.1 -70.6245C334.205 -74.287 356.058 -69.3799 375.326 -65.0506L375.726 -64.9617C377.074 -64.6594 378.403 -64.4105 379.723 -64.1616C383.413 -63.6049 387.015 -62.6011 390.44 -61.1747C394.22 -59.3318 398.188 -57.8661 402.282 -56.8009C403.837 -56.3624 405.351 -55.8004 406.809 -55.1207C408.613 -54.2246 410.555 -53.6094 412.562 -53.2983C417.871 -52.8732 423.211 -52.9536 428.503 -53.5384C447.781 -55.6097 467.756 -55.3163 487.062 -55.0496C491.71 -54.9874 496.413 -54.9163 501.061 -54.8807C513.023 -54.8096 525.692 -57.2721 540.741 -62.6859C548.344 -65.4151 553.931 -69.6644 559.331 -73.7714C567.697 -80.1276 575.588 -86.1282 590.005 -86.5727C595.461 -86.7505 601.02 -87.0616 606.383 -87.3727C611.746 -87.6839 617.398 -87.995 622.919 -88.1639C655.656 -89.1507 684.666 -84.7414 708.935 -74.9982C731.29 -66.0285 742.1 -53.0672 754.583 -38.0613C759.045 -32.7275 763.655 -27.1714 769.093 -21.4553C770.747 -19.6773 772.318 -17.8994 773.889 -16.1214C777.066 -12.2746 780.593 -8.7047 784.43 -5.45372C790.853 -0.306561 796.801 5.41844 802.555 10.9656C806.069 14.3437 809.694 17.8374 813.384 21.1533C823.608 30.3275 836.203 35.928 848.398 41.3508C855.792 44.4884 863.003 48.005 870 51.8851C871.71 52.8719 873.337 53.8587 874.936 54.8188C880.615 58.2591 885.988 61.5038 892.94 63.5129C895.338 64.2152 897.69 64.8553 899.995 65.4864C911.837 68.7312 923.028 71.7982 933.392 80.199C944.918 89.5332 952.457 99.8453 960.441 110.762C963.23 114.567 966.092 118.505 969.216 122.488C978.947 134.933 982.907 150.695 985.5 164.456C987.081 172.857 987.053 180.884 987.025 189.347V189.703C987.025 192.121 987.081 194.548 987.136 196.975C987.332 204.976 987.545 213.207 985.277 221.101C977.581 247.646 965.247 271.711 949.622 290.699C927.313 317.84 906.809 334.392 883.218 344.376C874.731 347.932 870.056 352.608 869.331 358.181C867.323 373.685 894.771 394.22 912.934 407.813C919.887 413.013 925.371 417.12 927.871 419.894C933.634 426.259 937.306 434.118 940.884 441.727L941.721 443.505C952.429 466.334 938.477 497.884 927.267 523.237C924.664 529.122 922.201 534.678 920.286 539.63C918.591 543.708 916.587 547.663 914.291 551.462C912.077 555.107 910.135 558.898 908.482 562.806C905.898 569.437 903.834 574.202 899.094 579.794C895.92 583.685 893.008 587.765 890.375 592.008C887.584 596.492 884.479 600.79 881.08 604.872C878.635 607.69 876.302 610.704 874.034 613.628C870.506 618.405 866.646 622.949 862.48 627.23C859.692 629.896 857.229 632.866 854.803 635.71C852.377 638.555 849.913 641.444 847.181 644.147C826.797 664.273 809.461 670.265 783.221 679.332L778.695 680.906C753.124 689.796 728.111 692.729 701.629 695.858C697.605 696.33 693.57 696.81 689.499 697.307C686.824 697.633 684.128 697.79 681.431 697.779ZM495.855 654.077C526.352 654.077 556.952 660.771 593.63 675.092C595.759 675.928 597.869 676.79 599.988 677.652C605.435 680.01 611.022 682.061 616.719 683.795C618.773 684.373 620.892 684.986 623.058 685.573C636.601 689.484 651.947 693.912 665.081 694.685C666.764 694.783 668.427 694.907 670.063 695.023C676.57 695.485 682.63 695.912 689.193 695.112C693.27 694.614 697.316 694.131 701.332 693.663C727.693 690.551 752.576 687.618 777.905 678.826L782.431 677.252C808.374 668.282 825.514 662.362 845.536 642.582C848.203 639.915 850.657 637.071 853.027 634.288C855.398 631.506 858.019 628.43 860.835 625.665C864.932 621.468 868.729 617.013 872.203 612.33C874.48 609.388 876.851 606.348 879.314 603.441C882.633 599.434 885.664 595.216 888.386 590.817C891.067 586.491 894.035 582.334 897.272 578.372C901.808 573.038 903.778 568.433 906.297 561.997C907.975 558.015 909.947 554.153 912.2 550.44C914.445 546.73 916.402 542.867 918.056 538.883C919.998 533.887 922.461 528.304 925.073 522.393C936.116 497.43 949.854 466.387 939.546 444.412L938.718 442.634C935.233 435.175 931.636 427.459 926.096 421.299C923.744 418.685 918.056 414.436 911.475 409.511C892.884 395.616 864.851 374.627 867.026 357.897C867.853 351.514 872.975 346.287 882.242 342.367C905.479 332.534 925.687 316.186 947.781 289.339C963.22 270.573 975.415 246.766 983.028 220.506C985.231 212.923 985.026 204.833 984.831 197.01C984.776 194.557 984.71 192.112 984.72 189.685V189.321C984.72 180.929 984.776 172.99 983.233 164.785C980.556 150.561 976.782 135.804 967.366 123.741C964.224 119.723 961.333 115.74 958.545 111.953C950.653 101.161 943.189 90.9556 931.896 81.7991C921.894 73.7095 911.447 70.8381 899.363 67.5311C897.039 66.891 894.716 66.2421 892.271 65.5487C885.03 63.4418 879.528 60.1259 873.681 56.6056C872.101 55.6455 870.483 54.6676 868.782 53.6898C861.857 49.8514 854.721 46.3734 847.404 43.271C835.051 37.786 822.298 32.1055 811.813 22.6912C808.095 19.3487 804.442 15.8461 800.919 12.4502C795.203 6.94747 789.291 1.25804 782.943 -3.8269C779.013 -7.15345 775.395 -10.8034 772.132 -14.7346C770.58 -16.5126 769.019 -18.2905 767.383 -19.9796C761.899 -25.749 757.27 -31.314 752.78 -36.7012C740.483 -51.4759 729.849 -64.2594 708.034 -72.998C684.09 -82.6078 655.424 -86.9549 622.947 -85.9771C617.453 -85.8082 611.867 -85.4881 606.476 -85.177C601.085 -84.8658 595.517 -84.5547 590.033 -84.3858C576.406 -83.9591 568.794 -78.163 560.744 -72.0468C555.167 -67.8331 549.478 -63.486 541.54 -60.6235C526.222 -55.1207 513.358 -52.5694 501.042 -52.685C496.394 -52.685 491.747 -52.7916 487.034 -52.8539C467.794 -53.1294 447.893 -53.4139 428.754 -51.3604C423.301 -50.7576 417.799 -50.6771 412.33 -51.1204C410.061 -51.4398 407.862 -52.1156 405.823 -53.1205C404.48 -53.7487 403.084 -54.269 401.65 -54.6763C397.422 -55.7796 393.324 -57.2928 389.418 -59.1922C386.15 -60.5495 382.714 -61.4996 379.193 -62.0192C377.845 -62.2681 376.488 -62.5259 375.112 -62.837L374.713 -62.9259C355.658 -67.2019 334.065 -72.0557 314.425 -68.482C312.482 -68.1264 310.568 -67.8064 308.662 -67.4953C301.774 -66.3485 295.268 -65.2639 288.594 -62.7393C283.599 -60.9681 278.833 -58.6534 274.391 -55.8408C269.661 -52.9545 265.242 -49.6252 261.201 -45.9021C258.292 -43.1107 257.186 -40.0704 255.903 -36.5501C255.587 -35.6611 255.262 -34.7721 254.909 -33.8831C254.202 -32.1052 253.468 -30.3272 252.734 -28.5493C251.451 -25.4023 250.122 -22.1576 248.96 -18.9573C243.95 -5.12481 243.987 9.94332 244.015 24.5225V25.8293C244.015 44.9156 241.542 64.3663 223.166 77.3187C219.29 80.0479 212.124 83.3104 207.299 83.8082C205.859 83.9593 204.446 84.0127 203.033 84.066C200.716 84.0784 198.405 84.3106 196.136 84.7594C191.154 85.8973 186.172 86.5374 181.348 87.2219C173.112 88.3242 165.341 89.3732 157.58 92.5557C147.765 96.565 137.512 101.143 129.695 109.171C122.203 116.825 118.476 127.146 118.625 139.849C118.699 146.445 118.68 153.042 118.625 159.647C118.625 162.749 118.625 165.869 118.625 168.963C118.625 170.448 118.625 171.932 118.625 173.408C118.625 175.47 118.625 177.533 118.625 179.631C118.541 186.743 114.321 191.739 110.38 195.864C98.8446 207.909 84.428 216.31 70.4947 224.426C63.1981 228.631 55.5947 233.076 48.4933 238.001C27.8118 252.331 15.2263 270.76 6.54467 299.634C4.6113 305.972 4.20232 312.319 4.17443 319.831C4.17443 321.262 4.17443 322.702 4.10007 324.143C3.98853 328.774 3.86769 333.575 4.82508 338.126C6.58185 346.429 10.6996 354.421 14.6964 362.128C16.5555 365.782 18.5353 369.56 20.1991 373.303C25.8691 386.104 36.5491 397.394 46.8759 408.32C50.092 411.724 53.1315 414.942 56.0223 418.196C61.3484 424.206 67.9014 428.65 77.2522 432.615C80.3506 433.919 83.4489 435.238 86.5473 436.571C92.0592 438.927 97.5805 441.292 103.13 443.576C107.998 445.422 112.984 446.969 118.058 448.208C130.197 451.444 143.954 455.115 150.59 463.729C152.293 465.837 154.124 467.847 156.074 469.748C158.369 471.96 160.482 474.337 162.395 476.859C176.626 496.746 176.607 523.086 176.598 546.262V549.169C176.598 552.262 176.598 555.392 176.514 558.485C176.403 566.424 176.291 574.638 176.942 582.612C178.197 598.08 181.524 612.01 186.822 624.02C192.316 636.466 204.483 653.712 216.306 661.259C245.623 680.026 270.617 686.355 302.555 683.146C312.668 682.133 322.019 679.955 331.918 677.643L337.282 676.408C353.576 672.692 369.247 671.963 385.839 671.26C389.25 671.109 392.671 670.958 396.119 670.78C410.833 670.007 427.276 665.829 438.365 662.78L439.676 662.415C449.603 659.659 458.972 657.081 469.262 655.792C478.079 654.679 486.962 654.106 495.855 654.077Z" stroke="url(#paint5_linear_19_8)" stroke-width="2" stroke-miterlimit="10"/>
<defs>
<linearGradient id="paint0_linear_19_8" x1="496.375" y1="26.5615" x2="496.375" y2="588.661" gradientUnits="userSpaceOnUse">
<stop stop-color="#407BFF"/>
<stop offset="1" stop-color="#FFF0E9" stop-opacity="0"/>
</linearGradient>
<linearGradient id="paint1_linear_19_8" x1="492.625" y1="5.74316" x2="492.625" y2="599.43" gradientUnits="userSpaceOnUse">
<stop stop-color="#407BFF"/>
<stop offset="1" stop-color="#FFF0E9" stop-opacity="0"/>
</linearGradient>
<linearGradient id="paint2_linear_19_8" x1="492.25" y1="-10.7681" x2="492.25" y2="620.966" gradientUnits="userSpaceOnUse">
<stop stop-color="#407BFF"/>
<stop offset="1" stop-color="#FFF0E9" stop-opacity="0"/>
</linearGradient>
<linearGradient id="paint3_linear_19_8" x1="497.125" y1="-40.9194" x2="497.125" y2="648.963" gradientUnits="userSpaceOnUse">
<stop stop-color="#407BFF"/>
<stop offset="1" stop-color="#FFF0E9" stop-opacity="0"/>
</linearGradient>
<linearGradient id="paint4_linear_19_8" x1="495.25" y1="-62.4556" x2="495.25" y2="669.782" gradientUnits="userSpaceOnUse">
<stop stop-color="#407BFF"/>
<stop offset="1" stop-color="#FFF0E9" stop-opacity="0"/>
</linearGradient>
<linearGradient id="paint5_linear_19_8" x1="494.5" y1="-88.2993" x2="494.5" y2="697.779" gradientUnits="userSpaceOnUse">
<stop stop-color="#407BFF"/>
<stop offset="1" stop-color="#FFF0E9" stop-opacity="0"/>
</linearGradient>
</defs>
</svg>
