<svg width="309" height="371" viewBox="0 0 309 371" fill="none" xmlns="http://www.w3.org/2000/svg">
<g opacity="0.3">
<path d="M49.7208 96.6907C49.9671 96.7134 50.2054 96.7912 50.4179 96.9182C50.6304 97.0452 50.8114 97.2181 50.9476 97.424C51.0838 97.6299 51.1715 97.8634 51.2041 98.107C51.2368 98.3506 51.2135 98.598 51.1361 98.8306C24.4803 176.642 -48.3064 241.234 -138.536 267.359C-138.8 267.476 -139.082 267.55 -139.371 267.578L-140.238 264.404C-140.014 264.297 -139.771 264.233 -139.523 264.216C-50.7154 238.497 20.827 174.963 47.1488 98.3839C47.3011 97.8416 47.6441 97.3728 48.1159 97.0622C48.5876 96.7517 49.1569 96.6199 49.7208 96.6907Z" fill="#407BFF"/>
<path d="M1.4815 225.087C19.0766 239.551 -13.2257 253.132 -30.153 244.505C-47.1864 236.543 -60.6597 232.958 -66.4893 234.076C-62.629 231.948 -58.8229 229.739 -55.1007 227.456C-54.9035 228.295 -15.9222 211.908 1.4815 225.087Z" fill="#407BFF"/>
<path d="M-23.9295 156.193C-2.65201 167.303 -20.0059 200.383 -21.002 200.233C-24.0036 203.113 -27.1104 205.958 -30.3009 208.729C-27.7165 204.089 -29.6409 191.919 -39.0074 178.029C-47.7366 163.907 -43.7462 144.954 -23.9295 156.193Z" fill="#407BFF"/>
<path d="M35.814 190.468C56.276 202.085 26.7219 219.786 8.05286 213.682C-10.5246 208.381 -24.649 206.747 -30.1928 208.682C-26.7842 206.067 -23.4514 203.409 -20.2026 200.677C-19.8536 201.604 15.8146 180.194 35.814 190.468Z" fill="#407BFF"/>
<path d="M-3.15148 127.143C20.2786 134.931 9.38513 169.644 8.45895 169.634C5.99399 172.848 3.46156 176.049 0.845449 179.177C2.4772 174.311 -1.82417 162.764 -13.9343 150.608C-25.4987 138.117 -25.2069 119.025 -3.15148 127.143Z" fill="#407BFF"/>
<path d="M63.3828 151.919C86.1246 160.296 60.014 181.837 40.1983 178.675C20.6288 176.181 6.17964 176.638 1.05783 179.417C3.94107 176.399 6.74851 173.337 9.47193 170.201C9.89701 170.822 41.3718 144.815 63.3828 151.919Z" fill="#407BFF"/>
<path d="M11.963 95.7311C36.9706 99.9385 32.8149 135.549 31.8235 135.651C29.9761 139.148 28.061 142.63 26.0407 146.077C26.752 141.104 20.2119 130.46 5.68928 120.328C-8.22803 109.847 -11.6262 91.1193 11.963 95.7311Z" fill="#407BFF"/>
<path d="M83.4675 110.2C107.837 115.061 85.8908 140.024 65.4774 139.821C45.3916 140.232 31.1286 142.773 26.386 146.121C28.6704 142.783 30.9305 139.356 32.9955 135.916C33.5424 136.632 60.0592 106.52 83.4675 110.2Z" fill="#407BFF"/>
<path d="M43.1426 115.193C43.4369 115.687 66.5084 88.5092 71.1076 70.9397C76.1633 53.7576 62.5647 47.4996 54.0975 50.4528C45.6302 53.406 42.5513 65.3443 42.5224 75.4986C43.4632 88.7143 43.6702 101.966 43.1426 115.193Z" fill="#407BFF"/>
<path d="M41.8054 115.673L41.8458 115.821C42.0075 116.047 42.2324 116.221 42.4923 116.322C42.7523 116.423 43.0359 116.446 43.3077 116.388C43.5005 116.368 43.6849 116.301 43.8444 116.193C44.0039 116.085 44.1336 115.938 44.2218 115.768C49.3606 111.247 68.375 86.2439 72.3159 71.1614C74.8465 62.6961 73.1137 55.5408 67.5809 51.5081C65.5664 50.0712 63.2404 49.1279 60.7945 48.7558C58.3486 48.3837 55.853 48.5936 53.5135 49.3682C41.8285 53.2616 40.9809 70.449 40.961 75.623C41.873 85.3721 42.1159 112.262 41.7059 114.843C41.6639 114.98 41.651 115.125 41.6681 115.268C41.6852 115.41 41.732 115.548 41.8054 115.673ZM69.7653 58.4497C71.2031 62.4343 71.1846 66.7841 69.7132 70.7351C66.1057 84.5885 51.001 104.189 44.8736 111.506C44.9484 108.981 44.9213 105.151 44.8204 98.8357C44.7017 90.9394 44.42 80.5808 43.913 75.2282C43.9578 65.4815 46.7338 54.0661 54.4986 51.456C56.3834 50.8601 58.3865 50.715 60.3452 51.0325C62.3038 51.35 64.1629 52.1212 65.7714 53.2835C67.5752 54.5893 68.9626 56.3839 69.7653 58.4497Z" fill="#407BFF"/>
<path d="M-135.561 282.175C4.40724 288.03 146.287 230.273 235.358 130.59C235.929 129.962 236.701 129.549 237.544 129.42C238.387 129.291 239.251 129.453 239.993 129.88C240.323 130.076 240.605 130.344 240.815 130.665C241.025 130.985 241.16 131.348 241.207 131.727C241.255 132.106 241.215 132.49 241.09 132.85C240.965 133.209 240.759 133.535 240.487 133.802C150.461 234.438 7.45179 293.099 -134.003 287.891L-135.561 282.175Z" fill="#407BFF"/>
<path d="M6.77103 320.04C14.7083 352.455 -39.0206 348.379 -51.9886 324.521C-65.6635 301.579 -79.1011 287.207 -87.6117 284.554C-80.6216 284.369 -73.6574 284.011 -66.7194 283.48C-67.1641 284.771 -2.01456 289.657 6.77103 320.04Z" fill="#407BFF"/>
<path d="M42.4419 206.55C58.3152 236.947 4.31436 270.522 3.1433 269.623C-3.45348 271.482 -10.1124 273.231 -16.8335 274.869C-9.05583 270.287 0.460693 252.108 2.25171 226.214C5.07089 200.462 28.5325 177.033 42.4419 206.55Z" fill="#407BFF"/>
<path d="M83.3713 296.165C97.6793 326.549 43.6009 330.176 26.1703 308.806C8.08651 288.433 -8.06736 276.287 -16.9058 275.02C-10.0825 273.82 -3.29705 272.483 3.45063 271.007C3.07338 272.313 68.4175 267.856 83.3713 296.165Z" fill="#407BFF"/>
<path d="M96.3264 180.928C118.101 208.201 70.9734 248.461 69.7246 247.742C63.5243 250.491 57.2466 253.112 50.8914 255.606C57.7157 250.007 63.5301 231.033 60.1463 205.592C57.8874 180.301 76.4713 154.262 96.3264 180.928Z" fill="#407BFF"/>
<path d="M154.969 262.084C175.269 289.616 121.997 300.845 100.361 282.565C78.334 265.308 59.8822 255.758 50.8573 255.809C57.4045 253.665 63.8741 251.393 70.2661 248.994C70.1514 250.327 134.437 236.744 154.969 262.084Z" fill="#407BFF"/>
<path d="M145.283 148.295C172.374 171.744 133.102 217.633 131.746 217.101C126.101 220.698 120.36 224.14 114.524 227.427C120.206 221.052 122.258 201.743 113.925 177.552C106.681 153.266 120.359 125.196 145.283 148.295Z" fill="#407BFF"/>
<path d="M220.007 218.781C245.7 242.659 194.526 261.293 169.33 246.604C143.908 232.96 123.591 226.308 114.619 227.617C120.701 224.618 126.706 221.492 132.633 218.238C132.771 219.443 194.426 197.068 220.007 218.781Z" fill="#407BFF"/>
<path d="M188.175 109.269C219.891 128.158 189.343 178.683 187.963 178.412C182.989 182.698 177.915 186.852 172.728 190.94C177.175 183.909 175.474 164.865 162.442 142.461C150.402 119.954 158.707 90.454 188.175 109.269Z" fill="#407BFF"/>
<path d="M276.919 166.869C307.318 186.439 259.571 212.295 231.41 201.621C203.234 192.066 181.591 188.526 172.868 191.106C178.41 187.294 183.817 183.337 189.088 179.235C189.486 180.69 247.047 149.581 276.919 166.869Z" fill="#407BFF"/>
</g>
</svg>
