<svg width="205" height="372" viewBox="0 0 205 372" fill="none" xmlns="http://www.w3.org/2000/svg">
<g opacity="0.3">
<path d="M225.91 111.079C201.541 115.939 223.487 140.903 243.9 140.7C263.986 141.111 278.249 143.652 282.992 146.999C280.708 143.661 278.447 140.234 276.382 136.795C275.836 137.51 249.319 107.398 225.91 111.079Z" fill="#407BFF"/>
<path d="M444.939 283.054C304.971 288.909 163.091 231.152 74.0197 131.469C73.4486 130.841 72.6772 130.428 71.834 130.299C70.9908 130.169 70.1265 130.332 69.3845 130.759C69.0545 130.955 68.7734 131.223 68.5629 131.543C68.3525 131.864 68.2183 132.227 68.1706 132.606C68.1229 132.985 68.1631 133.369 68.288 133.728C68.4129 134.088 68.6192 134.414 68.891 134.681C158.917 235.317 301.926 293.978 443.381 288.769L444.939 283.054Z" fill="#407BFF"/>
<path d="M213.052 181.807C191.277 209.079 238.404 249.339 239.653 248.62C245.854 251.369 252.131 253.991 258.487 256.484C251.662 250.886 245.848 231.912 249.232 206.471C251.49 181.179 232.907 155.14 213.052 181.807Z" fill="#407BFF"/>
<path d="M154.409 262.963C134.109 290.494 187.381 301.724 209.017 283.443C231.044 266.187 249.496 256.637 258.521 256.687C251.973 254.544 245.504 252.272 239.112 249.872C239.227 251.205 174.941 237.622 154.409 262.963Z" fill="#407BFF"/>
<path d="M164.095 149.174C137.004 172.622 176.276 218.512 177.632 217.98C183.277 221.577 189.018 225.018 194.854 228.306C189.172 221.93 187.12 202.622 195.453 178.431C202.697 154.145 189.019 126.075 164.095 149.174Z" fill="#407BFF"/>
<path d="M89.3711 219.66C63.6776 243.538 114.852 262.172 140.048 247.483C165.47 233.839 185.787 227.187 194.759 228.495C188.677 225.497 182.672 222.371 176.745 219.117C176.607 220.321 114.952 197.947 89.3711 219.66Z" fill="#407BFF"/>
<path d="M121.203 110.147C89.4866 129.037 120.035 179.562 121.415 179.291C126.389 183.577 131.463 187.73 136.65 191.819C132.203 184.787 133.904 165.744 146.936 143.34C158.976 120.833 150.67 91.3326 121.203 110.147Z" fill="#407BFF"/>
<path d="M32.4591 167.748C2.06014 187.317 49.8067 213.173 77.9681 202.5C106.144 192.944 127.787 189.405 136.51 191.985C130.968 188.173 125.561 184.216 120.29 180.114C119.892 181.569 62.3313 150.459 32.4591 167.748Z" fill="#407BFF"/>
</g>
</svg>
