<svg width="272" height="371" viewBox="0 0 272 371" fill="none" xmlns="http://www.w3.org/2000/svg">
<g opacity="0.3">
<path d="M12.7208 96.8075C12.9671 96.8302 13.2054 96.908 13.4179 97.035C13.6304 97.162 13.8114 97.335 13.9476 97.5409C14.0838 97.7468 14.1715 97.9802 14.2041 98.2238C14.2368 98.4674 14.2135 98.7148 14.1361 98.9474C-12.5197 176.759 -85.3064 241.351 -175.536 267.475C-175.8 267.593 -176.082 267.667 -176.371 267.695L-177.238 264.521C-177.014 264.414 -176.771 264.35 -176.523 264.333C-87.7154 238.613 -16.173 175.08 10.1488 98.5008C10.3011 97.9585 10.6441 97.4896 11.1159 97.1791C11.5876 96.8685 12.1569 96.7367 12.7208 96.8075Z" fill="#407BFF"/>
<path d="M-1.18598 190.585C19.276 202.202 -10.2781 219.903 -28.9471 213.798C-47.5246 208.498 -61.649 206.864 -67.1928 208.799C-63.7842 206.184 -60.4514 203.525 -57.2026 200.793C-56.8536 201.72 -21.1854 180.311 -1.18598 190.585Z" fill="#407BFF"/>
<path d="M26.3828 152.036C49.1246 160.413 23.014 181.954 3.19831 178.792C-16.3712 176.298 -30.8204 176.755 -35.9422 179.534C-33.0589 176.516 -30.2515 173.454 -27.5281 170.318C-27.103 170.939 4.37178 144.931 26.3828 152.036Z" fill="#407BFF"/>
<path d="M-25.037 95.8478C-0.0293573 100.055 -4.18507 135.666 -5.1765 135.768C-7.02394 139.264 -8.93897 142.747 -10.9593 146.194C-10.248 141.221 -16.7881 130.577 -31.3107 120.445C-45.228 109.964 -48.6262 91.236 -25.037 95.8478Z" fill="#407BFF"/>
<path d="M46.4675 110.317C70.8371 115.177 48.8908 140.141 28.4774 139.938C8.39162 140.349 -5.8714 142.89 -10.614 146.237C-8.32959 142.899 -6.0695 139.472 -4.00455 136.033C-3.4576 136.748 23.0592 106.636 46.4675 110.317Z" fill="#407BFF"/>
<path d="M6.14264 115.31C6.43689 115.804 29.5084 88.6261 34.1076 71.0565C39.1633 53.8744 25.5647 47.6164 17.0975 50.5696C8.63023 53.5228 5.55132 65.4612 5.52242 75.6155C6.46316 88.8311 6.67023 102.083 6.14264 115.31Z" fill="#407BFF"/>
<path d="M4.80539 115.79L4.84583 115.937C5.00752 116.164 5.23237 116.338 5.49235 116.439C5.75233 116.54 6.03594 116.563 6.30774 116.505C6.5005 116.485 6.68486 116.418 6.8444 116.31C7.00394 116.201 7.13364 116.055 7.22176 115.884C12.3606 111.364 31.375 86.3606 35.3159 71.2781C37.8465 62.8128 36.1137 55.6575 30.5809 51.6248C28.5664 50.1879 26.2404 49.2446 23.7945 48.8725C21.3486 48.5004 18.853 48.7103 16.5135 49.4849C4.82848 53.3783 3.98094 70.5657 3.96101 75.7397C4.87302 85.4888 5.1159 112.378 4.7059 114.959C4.66387 115.097 4.65102 115.241 4.66813 115.384C4.68524 115.527 4.73201 115.665 4.80539 115.79ZM32.7653 58.5664C34.2031 62.551 34.1846 66.9008 32.7132 70.8518C29.1057 84.7052 14.001 104.305 7.87356 111.622C7.94835 109.098 7.9213 105.268 7.82041 98.9524C7.70174 91.0561 7.42001 80.6975 6.91299 75.3449C6.95782 65.5982 9.73381 54.1828 17.4986 51.5727C19.3834 50.9768 21.3865 50.8317 23.3452 51.1492C25.3038 51.4667 27.1629 52.2379 28.7714 53.4002C30.5752 54.706 31.9626 56.5006 32.7653 58.5664Z" fill="#407BFF"/>
<path d="M-172.561 282.292C-32.5928 288.147 109.287 230.39 198.358 130.707C198.929 130.079 199.701 129.666 200.544 129.537C201.387 129.407 202.251 129.57 202.993 129.997C203.323 130.193 203.605 130.461 203.815 130.781C204.025 131.102 204.16 131.465 204.207 131.844C204.255 132.223 204.215 132.607 204.09 132.966C203.965 133.326 203.759 133.652 203.487 133.919C113.461 234.555 -29.5482 293.216 -171.003 288.007L-172.561 282.292Z" fill="#407BFF"/>
<path d="M5.44189 206.667C21.3152 237.064 -32.6856 270.638 -33.8567 269.74C-40.4535 271.599 -47.1124 273.348 -53.8335 274.986C-46.0558 270.404 -36.5393 252.225 -34.7483 226.33C-31.9291 200.578 -8.46746 177.15 5.44189 206.667Z" fill="#407BFF"/>
<path d="M46.3713 296.281C60.6793 326.666 6.60088 330.292 -10.8297 308.922C-28.9135 288.55 -45.0674 276.404 -53.9058 275.136C-47.0825 273.937 -40.297 272.6 -33.5494 271.124C-33.9266 272.43 31.4175 267.972 46.3713 296.281Z" fill="#407BFF"/>
<path d="M59.3264 181.045C81.101 208.317 33.9734 248.577 32.7246 247.858C26.5243 250.607 20.2466 253.229 13.8914 255.723C20.7157 250.124 26.5301 231.15 23.1463 205.709C20.8874 180.417 39.4713 154.378 59.3264 181.045Z" fill="#407BFF"/>
<path d="M117.969 262.201C138.269 289.732 84.9971 300.962 63.3609 282.681C41.334 265.425 22.8822 255.875 13.8573 255.925C20.4045 253.782 26.8741 251.51 33.2661 249.11C33.1514 250.444 97.4374 236.861 117.969 262.201Z" fill="#407BFF"/>
<path d="M108.283 148.412C135.374 171.86 96.102 217.75 94.7458 217.218C89.1005 220.815 83.3599 224.256 77.5238 227.544C83.2062 221.169 85.2577 201.86 76.9245 177.669C69.6805 153.383 83.3588 125.313 108.283 148.412Z" fill="#407BFF"/>
<path d="M183.007 218.898C208.7 242.776 157.526 261.41 132.33 246.721C106.908 233.077 86.5912 226.425 77.6191 227.733C83.7014 224.735 89.7061 221.609 95.6333 218.355C95.7706 219.559 157.426 197.185 183.007 218.898Z" fill="#407BFF"/>
<path d="M151.175 109.385C182.891 128.275 152.343 178.8 150.963 178.529C145.989 182.815 140.915 186.968 135.728 191.057C140.175 184.025 138.474 164.982 125.442 142.578C113.402 120.071 121.707 90.5707 151.175 109.385Z" fill="#407BFF"/>
<path d="M239.919 166.986C270.318 186.555 222.571 212.411 194.41 201.738C166.234 192.182 144.591 188.643 135.868 191.223C141.41 187.411 146.817 183.454 152.088 179.352C152.486 180.807 210.047 149.697 239.919 166.986Z" fill="#407BFF"/>
</g>
</svg>
