<svg width="189" height="62" viewBox="0 0 189 62" fill="none" xmlns="http://www.w3.org/2000/svg">
<path d="M12.7124 44V18.5455H29.5661V22.9826H18.0941V29.0479H28.4474V33.4851H18.0941V44H12.7124ZM38.2912 44.3604C37.0732 44.3604 35.9877 44.1491 35.0348 43.7266C34.0819 43.2957 33.3279 42.6618 32.7727 41.8249C32.2259 40.9798 31.9524 39.9274 31.9524 38.668C31.9524 37.6074 32.1471 36.7166 32.5366 35.9957C32.926 35.2749 33.4563 34.6948 34.1275 34.2557C34.7987 33.8165 35.561 33.4851 36.4144 33.2614C37.2762 33.0376 38.1793 32.8802 39.1239 32.7891C40.2343 32.6731 41.1291 32.5653 41.8086 32.4659C42.488 32.3582 42.9811 32.2008 43.2876 31.9936C43.5942 31.7865 43.7475 31.4799 43.7475 31.0739V30.9993C43.7475 30.2121 43.4989 29.6031 43.0018 29.1722C42.5129 28.7414 41.8169 28.5259 40.9137 28.5259C39.9608 28.5259 39.2027 28.7372 38.6392 29.1598C38.0758 29.5741 37.7029 30.0961 37.5206 30.7259L32.6236 30.3281C32.8722 29.1681 33.361 28.1655 34.0902 27.3203C34.8194 26.4669 35.7598 25.8123 36.9116 25.3565C38.0716 24.8925 39.4139 24.6605 40.9386 24.6605C41.9992 24.6605 43.0142 24.7848 43.9837 25.0334C44.9614 25.282 45.8273 25.6673 46.5813 26.1893C47.3436 26.7113 47.9444 27.3825 48.3835 28.2028C48.8227 29.0148 49.0423 29.9884 49.0423 31.1236V44H44.021V41.3526H43.8718C43.5652 41.9492 43.1551 42.4754 42.6413 42.9311C42.1276 43.3786 41.5103 43.7307 40.7894 43.9876C40.0685 44.2362 39.2358 44.3604 38.2912 44.3604ZM39.8075 40.7063C40.5864 40.7063 41.2741 40.553 41.8707 40.2464C42.4673 39.9316 42.9355 39.509 43.2752 38.9787C43.6149 38.4484 43.7848 37.8477 43.7848 37.1765V35.1506C43.6191 35.2583 43.3912 35.3577 43.1012 35.4489C42.8195 35.5317 42.5005 35.6104 42.1442 35.685C41.7879 35.7513 41.4316 35.8134 41.0753 35.8714C40.719 35.9212 40.3958 35.9667 40.1058 36.0082C39.4844 36.0993 38.9416 36.2443 38.4776 36.4432C38.0136 36.642 37.6532 36.9113 37.3963 37.2511C37.1394 37.5825 37.011 37.9968 37.011 38.494C37.011 39.2148 37.272 39.7659 37.794 40.147C38.3243 40.5199 38.9955 40.7063 39.8075 40.7063ZM61.7757 44.3729C59.8203 44.3729 58.1382 43.9586 56.7296 43.13C55.3292 42.2931 54.2521 41.133 53.498 39.6499C52.7523 38.1667 52.3794 36.4598 52.3794 34.5291C52.3794 32.5736 52.7565 30.8584 53.5105 29.3835C54.2728 27.9003 55.3541 26.7444 56.7544 25.9158C58.1548 25.079 59.8203 24.6605 61.7509 24.6605C63.4164 24.6605 64.8747 24.9629 66.1259 25.5678C67.3771 26.1727 68.3672 27.022 69.0964 28.1158C69.8256 29.2095 70.2275 30.4938 70.302 31.9688H65.3056C65.1647 31.0159 64.7918 30.2494 64.187 29.6694C63.5904 29.0811 62.8074 28.7869 61.8379 28.7869C61.0176 28.7869 60.3008 29.0107 59.6877 29.4581C59.0828 29.8973 58.6105 30.5394 58.2708 31.3846C57.931 32.2298 57.7612 33.2531 57.7612 34.4545C57.7612 35.6726 57.9269 36.7083 58.2583 37.5618C58.5981 38.4152 59.0745 39.0657 59.6877 39.5131C60.3008 39.9606 61.0176 40.1843 61.8379 40.1843C62.4428 40.1843 62.9855 40.06 63.4661 39.8114C63.955 39.5629 64.3568 39.2024 64.6717 38.7301C64.9949 38.2495 65.2061 37.6737 65.3056 37.0025H70.302C70.2192 38.4608 69.8214 39.7451 69.1088 40.8555C68.4045 41.9575 67.4309 42.8192 66.188 43.4407C64.9451 44.0621 63.4744 44.3729 61.7757 44.3729ZM82.3923 44.3729C80.4285 44.3729 78.7382 43.9751 77.3213 43.1797C75.9127 42.3759 74.8272 41.2408 74.0649 39.7741C73.3026 38.2992 72.9214 36.555 72.9214 34.5415C72.9214 32.5778 73.3026 30.8543 74.0649 29.3711C74.8272 27.8879 75.9002 26.732 77.284 25.9034C78.676 25.0748 80.3084 24.6605 82.181 24.6605C83.4405 24.6605 84.613 24.8635 85.6984 25.2695C86.7922 25.6673 87.7451 26.268 88.5571 27.0717C89.3774 27.8755 90.0154 28.8864 90.4711 30.1044C90.9269 31.3142 91.1547 32.7311 91.1547 34.3551V35.8093H75.0344V32.5281H86.1707C86.1707 31.7657 86.005 31.0904 85.6736 30.5021C85.3421 29.9138 84.8823 29.454 84.2939 29.1225C83.7139 28.7828 83.0386 28.6129 82.268 28.6129C81.4643 28.6129 80.7517 28.7994 80.1302 29.1722C79.5171 29.5368 79.0365 30.0298 78.6885 30.6513C78.3405 31.2644 78.1623 31.948 78.154 32.7021V35.8217C78.154 36.7663 78.328 37.5825 78.676 38.2702C79.0323 38.958 79.5336 39.4883 80.18 39.8612C80.8263 40.234 81.5927 40.4205 82.4793 40.4205C83.0676 40.4205 83.6062 40.3376 84.0951 40.1719C84.584 40.0062 85.0024 39.7576 85.3504 39.4261C85.6984 39.0947 85.9636 38.6887 86.1459 38.2081L91.0429 38.5312C90.7943 39.7079 90.2847 40.7353 89.5141 41.6136C88.7518 42.4837 87.7658 43.1631 86.556 43.652C85.3546 44.1326 83.9666 44.3729 82.3923 44.3729ZM94.7094 44V18.5455H100.004V28.1158H100.166C100.398 27.602 100.733 27.08 101.172 26.5497C101.62 26.0111 102.2 25.5637 102.913 25.2074C103.633 24.8428 104.528 24.6605 105.597 24.6605C106.989 24.6605 108.274 25.0251 109.45 25.7543C110.627 26.4751 111.567 27.5647 112.272 29.0231C112.976 30.4731 113.328 32.2919 113.328 34.4794C113.328 36.6089 112.984 38.407 112.296 39.8736C111.617 41.3319 110.689 42.4381 109.512 43.1921C108.344 43.9379 107.035 44.3107 105.585 44.3107C104.557 44.3107 103.683 44.1409 102.962 43.8011C102.25 43.4614 101.666 43.0347 101.21 42.521C100.754 41.9989 100.406 41.4728 100.166 40.9425H99.9296V44H94.7094ZM99.8923 34.4545C99.8923 35.5897 100.05 36.5799 100.365 37.4251C100.679 38.2702 101.135 38.929 101.732 39.4013C102.328 39.8653 103.053 40.0973 103.907 40.0973C104.769 40.0973 105.498 39.8612 106.094 39.3888C106.691 38.9083 107.143 38.2454 107.449 37.4002C107.764 36.5468 107.921 35.5649 107.921 34.4545C107.921 33.3525 107.768 32.383 107.462 31.5462C107.155 30.7093 106.703 30.0547 106.107 29.5824C105.51 29.1101 104.777 28.8739 103.907 28.8739C103.045 28.8739 102.316 29.1018 101.719 29.5575C101.131 30.0133 100.679 30.6596 100.365 31.4964C100.05 32.3333 99.8923 33.3194 99.8923 34.4545ZM125.487 44.3729C123.556 44.3729 121.886 43.9627 120.478 43.1424C119.077 42.3138 117.996 41.1621 117.234 39.6871C116.472 38.204 116.09 36.4846 116.09 34.5291C116.09 32.5571 116.472 30.8336 117.234 29.3587C117.996 27.8755 119.077 26.7237 120.478 25.9034C121.886 25.0748 123.556 24.6605 125.487 24.6605C127.417 24.6605 129.083 25.0748 130.483 25.9034C131.892 26.7237 132.977 27.8755 133.74 29.3587C134.502 30.8336 134.883 32.5571 134.883 34.5291C134.883 36.4846 134.502 38.204 133.74 39.6871C132.977 41.1621 131.892 42.3138 130.483 43.1424C129.083 43.9627 127.417 44.3729 125.487 44.3729ZM125.512 40.2713C126.39 40.2713 127.123 40.0227 127.711 39.5256C128.3 39.0201 128.743 38.3324 129.041 37.4624C129.348 36.5923 129.501 35.6022 129.501 34.4918C129.501 33.3815 129.348 32.3913 129.041 31.5213C128.743 30.6513 128.3 29.9635 127.711 29.4581C127.123 28.9527 126.39 28.6999 125.512 28.6999C124.625 28.6999 123.879 28.9527 123.274 29.4581C122.678 29.9635 122.226 30.6513 121.92 31.5213C121.621 32.3913 121.472 33.3815 121.472 34.4918C121.472 35.6022 121.621 36.5923 121.92 37.4624C122.226 38.3324 122.678 39.0201 123.274 39.5256C123.879 40.0227 124.625 40.2713 125.512 40.2713ZM146.952 44.3729C145.021 44.3729 143.351 43.9627 141.943 43.1424C140.542 42.3138 139.461 41.1621 138.699 39.6871C137.936 38.204 137.555 36.4846 137.555 34.5291C137.555 32.5571 137.936 30.8336 138.699 29.3587C139.461 27.8755 140.542 26.7237 141.943 25.9034C143.351 25.0748 145.021 24.6605 146.952 24.6605C148.882 24.6605 150.548 25.0748 151.948 25.9034C153.357 26.7237 154.442 27.8755 155.204 29.3587C155.967 30.8336 156.348 32.5571 156.348 34.5291C156.348 36.4846 155.967 38.204 155.204 39.6871C154.442 41.1621 153.357 42.3138 151.948 43.1424C150.548 43.9627 148.882 44.3729 146.952 44.3729ZM146.976 40.2713C147.855 40.2713 148.588 40.0227 149.176 39.5256C149.765 39.0201 150.208 38.3324 150.506 37.4624C150.813 36.5923 150.966 35.6022 150.966 34.4918C150.966 33.3815 150.813 32.3913 150.506 31.5213C150.208 30.6513 149.765 29.9635 149.176 29.4581C148.588 28.9527 147.855 28.6999 146.976 28.6999C146.09 28.6999 145.344 28.9527 144.739 29.4581C144.143 29.9635 143.691 30.6513 143.384 31.5213C143.086 32.3913 142.937 33.3815 142.937 34.4918C142.937 35.6022 143.086 36.5923 143.384 37.4624C143.691 38.3324 144.143 39.0201 144.739 39.5256C145.344 40.0227 146.09 40.2713 146.976 40.2713ZM164.588 38.5064L164.601 32.1552H165.371L171.486 24.9091H177.564L169.349 34.5043H168.093L164.588 38.5064ZM159.791 44V18.5455H165.085V44H159.791ZM171.722 44L166.105 35.685L169.634 31.9439L177.925 44H171.722Z" fill="#407BFF"/>
</svg>
